PathFileType	4	(X/Y/Z)	RBDS017static.trc
DataRate	CameraRate	NumFrames	NumMarkers	Units	OrigDataRate	OrigDataStartFrame	OrigNumFrames
150.000000	150.000000	4	48	mm	150.000000	0	150
Frame#	Time	L.Ankle			L.Ankle.Medial			L.ASIS			L.GTR			L.Heel.Bottom			L.Heel.Lateral			L.Heel.Top			L.HF			L.Iliac.Crest			L.Knee			L.Knee.Medial			L.MT1			L.MT2			L.MT5			L.PSIS			L.Shank.Bottom.Lateral			L.Shank.Bottom.Medial			L.Shank.Top.Lateral			L.Shank.Top.Medial			L.Thigh.Bottom.Lateral			L.Thigh.Bottom.Medial			L.Thigh.Top.Lateral			L.Thigh.Top.Medial			L.TT			R.Ankle			R.Ankle.Medial			R.ASIS			R.GTR			R.Heel.Bottom			R.Heel.Lateral			R.Heel.Top			R.HF			R.Iliac.Crest			R.Knee			R.Knee.Medial			R.MT1			R.MT2			R.MT5			R.PSIS			R.Shank.Bottom.Lateral			R.Shank.Bottom.Medial			R.Shank.Top.Lateral			R.Shank.Top.Medial			R.Thigh.Bottom.Lateral			R.Thigh.Bottom.Medial			R.Thigh.Top.Lateral			R.Thigh.Top.Medial			R.TT			
		X1	Y1	Z1	X2	Y2	Z2	X3	Y3	Z3	X4	Y4	Z4	X5	Y5	Z5	X6	Y6	Z6	X7	Y7	Z7	X8	Y8	Z8	X9	Y9	Z9	X10	Y10	Z10	X11	Y11	Z11	X12	Y12	Z12	X13	Y13	Z13	X14	Y14	Z14	X15	Y15	Z15	X16	Y16	Z16	X17	Y17	Z17	X18	Y18	Z18	X19	Y19	Z19	X20	Y20	Z20	X21	Y21	Z21	X22	Y22	Z22	X23	Y23	Z23	X24	Y24	Z24	X25	Y25	Z25	X26	Y26	Z26	X27	Y27	Z27	X28	Y28	Z28	X29	Y29	Z29	X30	Y30	Z30	X31	Y31	Z31	X32	Y32	Z32	X33	Y33	Z33	X34	Y34	Z34	X35	Y35	Z35	X36	Y36	Z36	X37	Y37	Z37	X38	Y38	Z38	X39	Y39	Z39	X40	Y40	Z40	X41	Y41	Z41	X42	Y42	Z42	X43	Y43	Z43	X44	Y44	Z44	X45	Y45	Z45	X46	Y46	Z46	X47	Y47	Z47	X48	Y48	Z48	

1	0	707.3305053710938	114.0798721313477	1037.753173828125	734.6582641601563	125.0713119506836	1120.518188476563	861.2269897460938	1078.512817382813	1088.129516601563	783.201904296875	992.3851928710938	1038.018798828125	643.2035522460938	41.27397918701172	1078.2119140625	664.9114379882813	61.27809143066406	1042.447387695313	650.0563354492188	87.47642517089844	1080.316040039063	773.16259765625	511.5352478027344	1047.649536132813	787.1497802734375	1169.976440429688	1050.33203125	776.1223754882813	566.1405029296875	1054.908081054688	768.6670532226563	551.9940185546875	1174.712280273438	865.09814453125	63.65844345092773	1123.907958984375	869.3538208007813	68.08363342285156	1074.81689453125	834.9700927734375	50.29277420043945	1013.873779296875	681.8648071289063	1137.687255859375	1174.648681640625	718.5877075195313	209.2346343994141	1035.902221679688	676.1253662109375	210.8128051757813	1070.911499023438	716.5856323242188	289.6584167480469	1030.3984375	675.0953369140625	291.6394348144531	1064.676147460938	787.5265502929688	695.0493774414063	1034.954711914063	721.780517578125	686.6212158203125	1064.825805664063	767.3396606445313	803.8135375976563	1031.525512695313	708.591796875	796.2891235351563	1065.35302734375	827.0392456054688	482.3046875	1089.5166015625	710.6768188476563	110.1424179077148	1414.352661132813	732.4248046875	122.6552963256836	1330.051513671875	850.9271850585938	1074.157348632813	1373.104125976563	775.7123413085938	986.7130126953125	1416.59033203125	641.39111328125	43.62624359130859	1370.15380859375	666.9148559570313	65.30032348632813	1409.621948242188	651.6924438476563	90.39619445800781	1370.447509765625	767.7301025390625	507.570068359375	1399.399780273438	788.9091796875	1159.851318359375	1409.619018554688	773.21533203125	563.7166137695313	1391.854125976563	778.08837890625	548.1073608398438	1271.865966796875	863.0650634765625	65.36041259765625	1329.110229492188	872.6240844726563	69.96353149414063	1371.635986328125	830.937744140625	51.40589141845703	1442.2568359375	680.4170532226563	1135.215454101563	1276.59423828125	712.8687744140625	208.5691986083984	1413.976928710938	675.6096801757813	212.8885803222656	1378.989135742188	715.208251953125	293.3825988769531	1420.1240234375	674.3858642578125	293.57373046875	1385.396850585938	769.94921875	689.4500122070313	1408.403564453125	708.22021484375	682.6593017578125	1368.265502929688	750.498291015625	797.8742065429688	1412.378784179688	695.4063110351563	791.6226196289063	1370.357788085938	825.7864990234375	479.6665649414063	1357.6298828125	
2	0.006666666666666667	707.3328857421875	114.0940017700195	1037.757446289063	734.67529296875	125.0835571289063	1120.519409179688	861.2493896484375	1078.510986328125	1088.164306640625	783.219482421875	992.3843994140625	1038.05419921875	643.216796875	41.28502655029297	1078.20654296875	664.9039916992188	61.29005432128906	1042.448608398438	650.0634765625	87.48123168945313	1080.320678710938	773.2266235351563	511.5384216308594	1047.668212890625	787.177001953125	1169.985229492188	1050.353149414063	776.185791015625	566.1409301757813	1054.922973632813	768.7337036132813	551.991943359375	1174.730346679688	865.0850830078125	63.66230392456055	1123.902954101563	869.3518676757813	68.08827972412109	1074.82373046875	834.9725341796875	50.29340362548828	1013.87939453125	681.8756713867188	1137.6806640625	1174.690063476563	718.6044921875	209.2372131347656	1035.90771484375	676.14013671875	210.8175659179688	1070.917358398438	716.6118774414063	289.6689758300781	1030.4111328125	675.1268920898438	291.6535949707031	1064.682373046875	787.563232421875	695.0545654296875	1034.982177734375	721.8214111328125	686.6199951171875	1064.836303710938	767.3567504882813	803.829833984375	1031.549682617188	708.6256103515625	796.2835083007813	1065.387573242188	827.078857421875	482.3035888671875	1089.530395507813	710.6826171875	110.1239929199219	1414.357543945313	732.4257202148438	122.6558609008789	1330.04638671875	850.9505615234375	1074.154052734375	1373.135864257813	775.7451782226563	986.7095947265625	1416.619384765625	641.4011840820313	43.62237930297852	1370.152587890625	666.916748046875	65.30747985839844	1409.627197265625	651.6851196289063	90.39917755126953	1370.452392578125	767.7431030273438	507.5685729980469	1399.413330078125	788.9274291992188	1159.844604492188	1409.653564453125	773.208740234375	563.7093505859375	1391.87744140625	778.090576171875	548.0960693359375	1271.879760742188	863.0657348632813	65.37394714355469	1329.107177734375	872.6209106445313	69.97174072265625	1371.638916015625	830.9490356445313	51.41512680053711	1442.254028320313	680.4295654296875	1135.219116210938	1276.660034179688	712.8629760742188	208.5735015869141	1413.98095703125	675.6005859375	212.8944854736328	1379.000610351563	715.2108764648438	293.37646484375	1420.13720703125	674.3919677734375	293.5827026367188	1385.406127929688	769.9631958007813	689.4588012695313	1408.424926757813	708.235595703125	682.6651000976563	1368.292724609375	750.527099609375	797.8785400390625	1412.411499023438	695.419189453125	791.6435546875	1370.386474609375	825.7879638671875	479.6564636230469	1357.651733398438	
3	0.01333333333333333	707.33642578125	114.1000442504883	1037.7626953125	734.6690673828125	125.0794906616211	1120.526611328125	861.2727661132813	1078.518676757813	1088.192138671875	783.2496948242188	992.3882446289063	1038.088012695313	643.210693359375	41.29034042358398	1078.209350585938	664.90087890625	61.30095672607422	1042.453491210938	650.0668334960938	87.48024749755859	1080.321533203125	773.28955078125	511.5226745605469	1047.695678710938	787.1939086914063	1169.980834960938	1050.392822265625	776.2227783203125	566.1311645507813	1054.94384765625	768.7677612304688	552.00244140625	1174.755615234375	865.0862426757813	63.6491584777832	1123.90234375	869.3504638671875	68.08256530761719	1074.817016601563	834.9765625	50.2917366027832	1013.880187988281	681.8928833007813	1137.66650390625	1174.727172851563	718.6168212890625	209.2422332763672	1035.912231445313	676.1572875976563	210.8253631591797	1070.926025390625	716.630126953125	289.673828125	1030.4208984375	675.1537475585938	291.6594848632813	1064.689086914063	787.6038208007813	695.0468139648438	1035.01416015625	721.8582153320313	686.6048583984375	1064.857788085938	767.382080078125	803.82470703125	1031.57470703125	708.6609497070313	796.2789916992188	1065.406372070313	827.1273193359375	482.3121643066406	1089.552124023438	710.6542358398438	109.9693298339844	1413.891845703125	732.4219970703125	122.6560134887695	1330.043579101563	850.9778442382813	1074.150146484375	1373.1669921875	775.7785034179688	986.705078125	1416.65087890625	641.3853149414063	43.63459396362305	1370.150024414063	666.9197387695313	65.29949188232422	1409.636962890625	651.6845092773438	90.39507293701172	1370.458251953125	767.7359619140625	507.5651245117188	1399.435424804688	788.952392578125	1159.831909179688	1409.696655273438	773.2662353515625	563.7945556640625	1392.127685546875	778.099609375	548.0986328125	1271.89599609375	863.0661010742188	65.36419677734375	1329.11865234375	872.615478515625	69.96131134033203	1371.6357421875	830.943603515625	51.40598297119141	1442.259399414063	680.4561767578125	1135.19189453125	1276.672607421875	712.8672485351563	208.5734405517578	1413.994995117188	675.6077270507813	212.8946075439453	1379.0068359375	715.2149658203125	293.3775634765625	1420.143798828125	674.3968505859375	293.5777893066406	1385.426635742188	769.9898681640625	689.4542236328125	1408.453979492188	708.2371826171875	682.6716918945313	1368.3212890625	750.547119140625	797.8836669921875	1412.442993164063	695.4448852539063	791.643798828125	1370.415893554688	825.7981567382813	479.6556701660156	1357.668334960938	
4	0.02	707.3436279296875	114.1103439331055	1037.762939453125	734.6725463867188	125.074592590332	1120.529296875	861.289794921875	1078.51904296875	1088.214965820313	783.264892578125	992.3818969726563	1038.114624023438	643.2188720703125	41.28761672973633	1078.207153320313	664.9055786132813	61.29868316650391	1042.445434570313	650.0689697265625	87.47613525390625	1080.331298828125	773.3265380859375	511.5256042480469	1047.699829101563	787.1968383789063	1169.986938476563	1050.435302734375	776.2650756835938	566.1312255859375	1054.961059570313	768.8203125	551.9727172851563	1174.768188476563	865.0946655273438	63.65011215209961	1123.903564453125	869.3554077148438	68.08207702636719	1074.815063476563	834.977294921875	50.29081726074219	1013.88232421875	681.9111328125	1137.660888671875	1174.764892578125	718.6277465820313	209.24072265625	1035.92578125	676.169677734375	210.8209381103516	1070.932495117188	716.6488647460938	289.6822204589844	1030.426513671875	675.1729125976563	291.6670532226563	1064.699096679688	787.6353149414063	695.0447998046875	1035.047607421875	721.882080078125	686.5994262695313	1064.89501953125	767.4122924804688	803.82568359375	1031.593994140625	708.6871337890625	796.2793579101563	1065.437133789063	827.14990234375	482.2930908203125	1089.574462890625	710.650390625	109.9721603393555	1413.896606445313	732.41259765625	122.6605987548828	1330.049560546875	851.0020141601563	1074.144165039063	1373.190185546875	775.800537109375	986.6943969726563	1416.684448242188	641.3842163085938	43.62017822265625	1370.150146484375	666.907958984375	65.30023193359375	1409.634521484375	651.6837158203125	90.39514923095703	1370.451782226563	767.7423706054688	507.5608215332031	1399.453491210938	788.9735717773438	1159.832275390625	1409.73828125	773.2647705078125	563.7900390625	1392.150268554688	778.098876953125	548.1002197265625	1271.9228515625	863.0604248046875	65.36611175537109	1329.112182617188	872.6155395507813	69.96485900878906	1371.635864257813	830.9465942382813	51.39989471435547	1442.255126953125	680.4700927734375	1135.192016601563	1276.720825195313	712.8626098632813	208.5663146972656	1413.993774414063	675.601318359375	212.8946075439453	1379.020141601563	715.2146606445313	293.3779907226563	1420.155151367188	674.3971557617188	293.5801086425781	1385.43212890625	769.999755859375	689.457763671875	1408.465576171875	708.2484130859375	682.680419921875	1368.347045898438	750.5648803710938	797.88134765625	1412.472534179688	695.4618530273438	791.6474609375	1370.44873046875	825.80615234375	479.6462707519531	1357.675415039063	
